<svg width="44" height="28" viewBox="0 0 44 28" fill="none" xmlns="http://www.w3.org/2000/svg">
<rect width="44" height="28" rx="14" fill="#C0C0C0" fill-opacity="0.2"/>
<path fill-rule="evenodd" clip-rule="evenodd" d="M30.5303 21.4697C30.8232 21.7626 30.8232 22.2374 30.5303 22.5303C30.2374 22.8232 29.7626 22.8232 29.4697 22.5303L13.4697 6.53033C13.1768 6.23744 13.1768 5.76256 13.4697 5.46967C13.7626 5.17678 14.2374 5.17678 14.5303 5.46967L17.3571 8.29644C18.7663 7.52913 20.34 7 22 7C25.8155 7 29.1745 9.79533 31.1303 11.8531C32.2899 13.0732 32.2899 14.9268 31.1303 16.1469C30.3005 17.02 29.218 18.0259 27.9553 18.8947L30.5303 21.4697ZM24.5846 15.524C24.8486 15.0773 25 14.5564 25 14C25 12.3431 23.6569 11 22 11C21.4436 11 20.9227 11.1514 20.476 11.4154L24.5846 15.524ZM22 21C18.1845 21 14.8255 18.2047 12.8697 16.1469C11.7101 14.9268 11.7101 13.0732 12.8697 11.8531C13.3098 11.3901 13.8209 10.8897 14.3922 10.3923L24.5873 20.5874C23.7578 20.8474 22.8914 21 22 21Z" fill="#494949"/>
</svg>
