<svg width="20" height="14" viewBox="0 0 20 14" fill="none" xmlns="http://www.w3.org/2000/svg">
<path fill-rule="evenodd" clip-rule="evenodd" d="M19.1303 9.1469C20.2899 7.92683 20.2899 6.07317 19.1303 4.8531C17.1745 2.79533 13.8155 0 10 0C6.18448 0 2.82549 2.79533 0.869705 4.8531C-0.289902 6.07317 -0.289902 7.92683 0.869706 9.1469C2.82549 11.2047 6.18448 14 10 14C13.8155 14 17.1745 11.2047 19.1303 9.1469ZM10 10C11.6569 10 13 8.65685 13 7C13 5.34315 11.6569 4 10 4C8.34315 4 7 5.34315 7 7C7 8.65685 8.34315 10 10 10Z" fill="#5458EA"/>
</svg>
