<svg width="44" height="28" viewBox="0 0 44 28" fill="none" xmlns="http://www.w3.org/2000/svg">
<rect width="44" height="28" rx="14" fill="#C0C0C0" fill-opacity="0.2"/>
<path fill-rule="evenodd" clip-rule="evenodd" d="M31.1303 16.1469C32.2899 14.9268 32.2899 13.0732 31.1303 11.8531C29.1745 9.79533 25.8155 7 22 7C18.1845 7 14.8255 9.79533 12.8697 11.8531C11.7101 13.0732 11.7101 14.9268 12.8697 16.1469C14.8255 18.2047 18.1845 21 22 21C25.8155 21 29.1745 18.2047 31.1303 16.1469ZM22 17C23.6569 17 25 15.6569 25 14C25 12.3431 23.6569 11 22 11C20.3431 11 19 12.3431 19 14C19 15.6569 20.3431 17 22 17Z" fill="#494949"/>
</svg>
