<svg width="21" height="18" viewBox="0 0 21 18" fill="none" xmlns="http://www.w3.org/2000/svg">
<path d="M20.7144 5.71004C20.7144 7.13004 20.1644 8.46004 19.1644 9.46004L11.3144 17.31C11.2744 17.35 11.1644 17.44 11.1144 17.47C10.9944 17.55 10.8544 17.59 10.7144 17.59C10.5744 17.59 10.4244 17.55 10.3044 17.47C10.2444 17.43 10.1944 17.39 10.1344 17.33L2.27435 9.46004C1.26435 8.46004 0.714355 7.13004 0.714355 5.71004C0.714355 4.29004 1.26435 2.96004 2.27435 1.96004C4.34435 -0.0999609 7.70435 -0.0999609 9.77435 1.96004L10.7144 2.91004L11.6644 1.96004C13.7344 -0.0999609 17.0944 -0.0999609 19.1544 1.96004C20.1644 2.96004 20.7144 4.29004 20.7144 5.71004Z" fill="#F34545"/>
</svg>
